<svg
  xmlns="http://www.w3.org/2000/svg"
  viewBox="0 0 24 24"
  fill="none"
  stroke="currentColor"
  aria-hidden="true"
  stroke-width="1.5"
>
  <g>
    <g>
      <g>
        <path
          strokeLinecap="round"
          strokeLinejoin="round"
          d="M410.279,134.682h-56.256c-34.307,0-62.66,26.035-66.18,59.464c0,0.023,0,0.023,0,0.023
				c20.272,26.436,51.39,44.108,86.712,46.328c2.504,0.189,5.056,0.26,7.608,0.26c1.229,0,2.481-0.024,3.709-0.071
				c15.948-0.472,31.117-4.111,44.892-10.3c0.142-0.047,0.26-0.118,0.402-0.189c21.052-10.442,36.173-25.562,45.27-36.524
				C472.679,160.504,444.396,134.682,410.279,134.682z"
        />
      </g>
    </g>
    <g>
      <g>
        <g>
          <path
            strokeLinecap="round"
            strokeLinejoin="round"
            d="M416.589,36.958c-9.786-9.784-22.796-15.171-36.635-15.171h-0.004c-28.571,0-51.817,23.243-51.817,51.813
					c0,13.841,5.389,26.851,15.178,36.637c9.787,9.784,22.794,15.171,36.635,15.171h0.004c28.572,0,51.815-23.243,51.815-51.812
					C431.765,59.754,426.376,46.744,416.589,36.958z M379.95,118.707h-0.004c-12.05,0-23.378-4.691-31.897-13.21
					c-8.521-8.519-13.215-19.847-13.215-31.897c0-24.875,20.24-45.113,45.117-45.113h0.004c12.048,0,23.376,4.691,31.896,13.211
					c8.521,8.519,13.215,19.847,13.215,31.898C425.065,98.469,404.827,118.707,379.95,118.707z"
          />
        </g>
      </g>
    </g>
    <g>
      <g>
        <path
          strokeLinecap="round"
          strokeLinejoin="round"
          d="M405.292,48.254c-6.768-6.768-15.768-10.496-25.341-10.495c-19.764,0.001-35.843,16.079-35.843,35.84
				c0,9.573,3.728,18.572,10.498,25.34c6.769,6.768,15.77,10.495,25.343,10.495c19.764-0.001,35.842-16.079,35.842-35.841
				C415.791,64.021,412.062,55.022,405.292,48.254z"
        />
      </g>
    </g>
    <g>
      <g>
        <polygon
          points="364.839,122.058 374.221,144.204 386.706,144.204 395.916,122.058 			"
        />
      </g>
    </g>
    <g>
      <g>
        <path
          strokeLinecap="round"
          strokeLinejoin="round"
          d="M386.723,144.203h-12.499l-14.507,76.073l14.838,20.222c2.504,0.189,5.056,0.26,7.608,0.26
				c1.229,0,2.481-0.024,3.709-0.071l14.342-20.152C395.961,194.335,386.723,144.203,386.723,144.203z"
        />
      </g>
    </g>
    <g>
      <g>
        <g>
          <path
            strokeLinecap="round"
            strokeLinejoin="round"
            d="M359.78,118.707l12.223,28.846h16.938l11.996-28.846H359.78z M384.47,140.854h-8.031l-6.543-15.446h20.999
					L384.47,140.854z"
          />
        </g>
      </g>
    </g>
    <g>
      <g>
        <g>
          <path
            strokeLinecap="round"
            strokeLinejoin="round"
            d="M403.521,219.999c-4.209-25.937-13.412-75.9-13.503-76.402l-0.506-2.744h-18.062l-15.297,80.227
					l16.613,22.641l1.536,0.118c2.39,0.181,4.959,0.268,7.86,0.268c1.271,0,2.564-0.024,3.834-0.072l1.649-0.061l16.096-22.617
					L403.521,219.999z M384.109,237.388c-2.787,0.059-5.439,0-7.777-0.131l-13.051-17.786l13.714-71.917h6.936
					c1.95,10.626,9.056,49.564,12.755,72.162L384.109,237.388z"
          />
        </g>
      </g>
    </g>
    <g>
      <g>
        <g>
          <path
            strokeLinecap="round"
            strokeLinejoin="round"
            d="M489.573,178.083c-10.24-34.955-42.846-59.368-79.293-59.368h-56.257c-36.437,0-69.032,24.412-79.27,59.368
					l-0.39,1.335l0.669,1.219c2.779,5.064,5.958,9.982,9.461,14.635l0.691,0.936c21.52,28.063,54.018,45.424,89.117,47.632
					c2.39,0.181,4.959,0.268,7.86,0.268c1.271,0,2.564-0.024,3.81-0.072c16.013-0.475,31.512-4.024,46.068-10.55
					c0.203-0.081,0.397-0.172,0.613-0.288c21.54-10.683,37.1-26.227,46.369-37.396c1.604-1.95,3.18-3.963,4.777-6.113
					c1.86-2.761,3.709-5.804,5.494-9.047l0.674-1.221L489.573,178.083z M478.333,185.815c-1.442,1.937-2.951,3.865-4.476,5.719
					c-8.846,10.661-23.692,25.5-44.179,35.662l-0.288,0.135c-13.778,6.19-28.452,9.557-43.643,10.009
					c-1.187,0.044-2.397,0.068-3.585,0.068c-2.729,0-5.134-0.081-7.398-0.253c-32.833-2.063-63.228-18.131-83.57-44.131
					l-0.691-0.918c-3.285-4.279-6.279-8.803-8.916-13.468c9.834-31.407,39.42-53.222,72.437-53.222h56.257
					c33.03,0,62.624,21.812,72.46,53.219C481.268,181.242,479.768,183.68,478.333,185.815z"
          />
        </g>
      </g>
    </g>
    <g>
      <g>
        <g>
          <path
            strokeLinecap="round"
            strokeLinejoin="round"
            d="M382.162,0c-67.313,0-122.077,54.759-122.077,122.066c0,20.462,5.167,40.716,14.947,58.572
					c2.779,5.064,5.958,9.982,9.461,14.635l0.691,0.936c21.52,28.063,54.018,45.424,89.117,47.632
					c2.39,0.181,4.959,0.268,7.86,0.268c1.271,0,2.564-0.024,3.81-0.072c16.013-0.475,31.512-4.024,46.07-10.55
					c0.201-0.081,0.395-0.172,0.611-0.288c21.54-10.683,37.1-26.227,46.369-37.396c1.604-1.95,3.18-3.963,4.777-6.113
					c1.86-2.761,3.709-5.804,5.498-9.053c9.775-17.852,14.942-38.105,14.942-58.57C504.239,54.759,449.475,0,382.162,0z
					 M483.425,177.41c-1.69,3.066-3.435,5.939-5.093,8.406c-1.442,1.937-2.951,3.865-4.476,5.719
					c-8.846,10.661-23.692,25.5-44.179,35.662l-0.288,0.135c-13.778,6.19-28.452,9.557-43.643,10.009
					c-1.187,0.044-2.397,0.068-3.585,0.068c-2.729,0-5.134-0.081-7.398-0.253c-32.833-2.063-63.228-18.131-83.57-44.131
					l-0.691-0.918c-3.57-4.652-6.798-9.594-9.597-14.689c-9.237-16.87-14.12-36.009-14.12-55.35
					C266.785,58.454,318.543,6.7,382.162,6.7c63.618,0,115.376,51.754,115.376,115.366
					C497.539,141.41,492.657,160.55,483.425,177.41z"
          />
        </g>
      </g>
    </g>
    <g>
      <g>
        <path
          strokeLinecap="round"
          strokeLinejoin="round"
          d="M157.956,402.574h-56.256c-34.307,0-62.66,26.035-66.18,59.464c0,0.023,0,0.023,0,0.023
				c20.272,26.437,51.39,44.108,86.712,46.328c2.504,0.189,5.056,0.26,7.608,0.26c1.229,0,2.481-0.023,3.709-0.071
				c15.948-0.473,31.117-4.111,44.892-10.3c0.142-0.047,0.26-0.118,0.402-0.189c21.052-10.442,36.173-25.562,45.27-36.524
				C220.355,428.396,192.073,402.574,157.956,402.574z"
        />
      </g>
    </g>
    <g>
      <g>
        <g>
          <path
            strokeLinecap="round"
            strokeLinejoin="round"
            d="M164.266,304.85c-9.786-9.784-22.796-15.171-36.635-15.171h-0.004c-28.572,0-51.817,23.243-51.817,51.813
					c0,13.839,5.389,26.851,15.178,36.635c9.786,9.786,22.796,15.173,36.635,15.173h0.004c28.572,0,51.815-23.243,51.815-51.812
					C179.441,327.646,174.052,314.636,164.266,304.85z M127.626,386.599c-0.002,0-0.004,0-0.004,0
					c-12.05,0-23.378-4.691-31.897-13.21c-8.521-8.521-13.215-19.847-13.215-31.897c0-24.875,20.24-45.113,45.117-45.113h0.004
					c12.048,0,23.376,4.691,31.896,13.211c8.521,8.519,13.215,19.847,13.215,31.898
					C172.741,366.361,152.503,386.599,127.626,386.599z"
          />
        </g>
      </g>
    </g>
    <g>
      <g>
        <path
          strokeLinecap="round"
          strokeLinejoin="round"
          d="M152.97,316.146c-6.769-6.769-15.769-10.496-25.342-10.495c-19.764,0.001-35.843,16.079-35.843,35.84
				c0,9.573,3.728,18.572,10.498,25.34c6.768,6.768,15.77,10.496,25.343,10.495c19.764-0.001,35.842-16.079,35.842-35.841
				C163.467,331.914,159.739,322.915,152.97,316.146z"
        />
      </g>
    </g>
    <g>
      <g>
        <polygon
          points="112.516,389.95 121.897,412.097 134.382,412.097 143.593,389.95 			"
        />
      </g>
    </g>
    <g>
      <g>
        <path
          strokeLinecap="round"
          strokeLinejoin="round"
          d="M134.399,412.095H121.9l-14.507,76.073l14.838,20.222c2.504,0.189,5.056,0.26,7.608,0.26
				c1.229,0,2.481-0.023,3.709-0.071l14.342-20.152C143.638,462.227,134.399,412.095,134.399,412.095z"
        />
      </g>
    </g>
    <g>
      <g>
        <g>
          <path
            strokeLinecap="round"
            strokeLinejoin="round"
            d="M107.458,386.599l12.218,28.847h16.942l11.993-28.847H107.458z M132.148,408.746h-8.031l-6.543-15.446
					h20.997L132.148,408.746z"
          />
        </g>
      </g>
    </g>
    <g>
      <g>
        <g>
          <path
            strokeLinecap="round"
            strokeLinejoin="round"
            d="M151.197,487.891c-4.209-25.937-13.411-75.9-13.502-76.401l-0.506-2.744h-18.059l-15.3,80.227
					l16.613,22.641l1.535,0.118c2.393,0.181,4.964,0.269,7.863,0.269c1.269,0,2.562-0.024,3.832-0.072l1.649-0.061l16.096-22.618
					L151.197,487.891z M131.786,505.28c-2.785,0.061-5.439,0-7.777-0.131l-13.051-17.786l13.716-71.917h6.934
					c1.95,10.626,9.056,49.564,12.754,72.162L131.786,505.28z"
          />
        </g>
      </g>
    </g>
    <g>
      <g>
        <g>
          <path
            strokeLinecap="round"
            strokeLinejoin="round"
            d="M237.25,445.976c-10.24-34.955-42.846-59.368-79.293-59.368h-56.258c-36.434,0-69.03,24.413-79.27,59.368
					l-0.391,1.335l0.67,1.219c2.778,5.064,5.958,9.982,9.461,14.635l0.691,0.936c21.521,28.063,54.018,45.424,89.117,47.631
					c2.393,0.181,4.964,0.269,7.863,0.269c1.269,0,2.562-0.024,3.808-0.072c16.015-0.476,31.514-4.024,46.068-10.55
					c0.203-0.081,0.397-0.172,0.615-0.288c21.546-10.689,37.104-26.231,46.367-37.396c1.603-1.95,3.18-3.963,4.776-6.113
					c1.861-2.761,3.71-5.804,5.494-9.047l0.674-1.222L237.25,445.976z M226.009,453.708c-1.442,1.937-2.951,3.865-4.476,5.719
					c-8.842,10.656-23.684,25.494-44.181,35.662l-0.286,0.135c-13.775,6.189-28.45,9.557-43.643,10.009
					c-1.187,0.043-2.397,0.067-3.583,0.067c-2.729,0-5.134-0.081-7.4-0.253c-32.833-2.063-63.228-18.131-83.571-44.131l-0.691-0.918
					c-3.285-4.279-6.279-8.803-8.916-13.468c9.836-31.407,39.422-53.222,72.437-53.222h56.258c33.029,0,62.624,21.812,72.46,53.219
					C228.944,449.134,227.444,451.572,226.009,453.708z"
          />
        </g>
      </g>
    </g>
    <g>
      <g>
        <g>
          <path
            strokeLinecap="round"
            strokeLinejoin="round"
            d="M129.84,267.892c-67.315,0-122.079,54.759-122.079,122.066c0,20.462,5.167,40.716,14.947,58.572
					c2.778,5.064,5.958,9.982,9.461,14.635l0.691,0.936c21.521,28.063,54.018,45.424,89.117,47.631
					c2.393,0.181,4.964,0.269,7.863,0.269c1.269,0,2.562-0.024,3.808-0.072c16.015-0.476,31.514-4.024,46.068-10.55
					c0.203-0.081,0.397-0.172,0.615-0.288c21.546-10.689,37.104-26.231,46.367-37.396c1.603-1.95,3.18-3.963,4.776-6.113
					c1.861-2.761,3.71-5.804,5.499-9.054c9.777-17.854,14.944-38.107,14.944-58.569C251.917,322.651,197.153,267.892,129.84,267.892
					z M231.102,445.302c-1.69,3.066-3.436,5.939-5.093,8.406c-1.442,1.937-2.951,3.865-4.476,5.719
					c-8.842,10.656-23.684,25.494-44.181,35.662l-0.286,0.135c-13.775,6.189-28.45,9.557-43.643,10.009
					c-1.187,0.043-2.397,0.067-3.583,0.067c-2.729,0-5.134-0.081-7.4-0.253c-32.833-2.063-63.228-18.131-83.571-44.131l-0.691-0.918
					c-3.57-4.652-6.798-9.594-9.596-14.689c-9.237-16.87-14.12-36.009-14.12-55.35c0-63.612,51.758-115.366,115.379-115.366
					c63.619,0,115.376,51.754,115.376,115.366C245.217,409.299,240.333,428.438,231.102,445.302z"
          />
        </g>
      </g>
    </g>
    <g>
      <g>
        <g>
          <path
            strokeLinecap="round"
            strokeLinejoin="round"
            d="M379.948,275.567l-46.557,47.414h25.824v50.995h-70.893v41.47h112.36v-92.465h25.824L379.948,275.567z
					 M393.983,316.281v92.465h-98.96v-28.07h70.893v-64.395h-16.554l30.587-31.152l30.589,31.152H393.983z"
          />
        </g>
      </g>
    </g>
    <g>
      <g>
        <polygon
          points="379.95,296.287 367.992,308.464 373.732,308.464 373.732,388.492 302.838,388.492 302.838,400.929 
				386.166,400.929 386.166,308.464 391.907,308.464 			"
        />
      </g>
    </g>
    <g>
      <g>
        <g>
          <path
            strokeLinecap="round"
            strokeLinejoin="round"
            d="M221.984,131.095V89.627h-112.36v92.465H83.801l46.557,47.414l46.558-47.414h-25.823v-50.997H221.984z
					 M160.946,188.792l-30.589,31.152l-30.587-31.152h16.554V96.328h98.96v28.068h-70.892v64.397H160.946z"
          />
        </g>
      </g>
    </g>
    <g>
      <g>
        <polygon
          points="207.468,116.578 207.468,104.145 124.141,104.145 124.141,196.609 118.401,196.609 130.357,208.786 
				142.316,196.609 136.575,196.609 136.575,116.581 			"
        />
      </g>
    </g>
    <g>
      <g>
        <g>
          <path
            strokeLinecap="round"
            strokeLinejoin="round"
            d="M415.447,474.626h6.7v-6.7h-6.7V474.626z M402.046,474.626h6.7v-6.7h-6.7V474.626z M428.847,474.626h6.7
					v-6.7h-6.7V474.626z M388.646,474.626h6.7v-6.7h-6.7V474.626z M455.676,461.251h6.7l0.002-6.7h-6.7L455.676,461.251z
					 M442.247,474.626h6.7v-6.7h-6.7V474.626z M455.647,474.626h6.727v-6.674l-6.727-0.026V474.626z M335.045,474.626h6.7v-6.7h-6.7
					V474.626z M308.245,474.626h6.7v-6.7h-6.7V474.626z M294.844,474.626h6.7v-6.7h-6.7V474.626z M375.246,474.626h6.7v-6.7h-6.7
					V474.626z M361.846,474.626h6.7v-6.7h-6.7V474.626z M348.445,474.626h6.7v-6.7h-6.7V474.626z M321.645,474.626h6.7v-6.7h-6.7
					V474.626z M455.704,327.249h6.7l0.002-6.7h-6.7L455.704,327.249z M455.708,313.849h6.7v-6.7h-6.7V313.849z M455.702,340.649h6.7
					l0.002-6.7h-6.7L455.702,340.649z M455.715,280.348l-0.002,6.7h6.7l0.002-6.7H455.715z M455.7,354.05h6.7v-6.7h-6.7V354.05z
					 M455.711,300.448h6.7l0.002-6.7h-6.7L455.711,300.448z M455.687,407.65h6.7l0.002-6.7h-6.7L455.687,407.65z M455.685,421.051
					h6.7l0.002-6.7h-6.7L455.685,421.051z M455.683,434.451h6.7v-6.7h-6.7V434.451z M455.695,367.45h6.7l0.002-6.7h-6.7
					L455.695,367.45z M455.678,447.852h6.7l0.002-6.7h-6.7L455.678,447.852z M455.693,380.85h6.7l0.002-6.7h-6.7L455.693,380.85z
					 M455.691,394.25h6.7v-6.7h-6.7V394.25z"
          />
        </g>
      </g>
    </g>
    <g>
      <g>
        <g>
          <path
            strokeLinecap="round"
            strokeLinejoin="round"
            d="M56.551,114.596h6.7l0.002-6.7h-6.7L56.551,114.596z M56.553,101.196h6.7l0.002-6.7h-6.7L56.553,101.196z
					 M56.549,127.996h6.7v-6.7h-6.7V127.996z M56.558,87.795h6.7v-6.7h-6.7V87.795z M56.544,141.396h6.7l0.002-6.7h-6.7
					L56.544,141.396z M56.56,74.395h6.7l0.002-6.7h-6.7L56.56,74.395z M56.54,168.197h6.7v-6.7h-6.7V168.197z M56.534,194.998h6.7
					l0.002-6.7h-6.7L56.534,194.998z M56.542,154.797h6.7l0.002-6.7h-6.7L56.542,154.797z M56.527,221.798h6.7l0.002-6.7h-6.7
					L56.527,221.798z M56.531,208.398h6.7v-6.7h-6.7V208.398z M56.562,60.995h6.7l0.002-6.7h-6.7L56.562,60.995z M56.536,181.597
					h6.7l0.002-6.7h-6.7L56.536,181.597z M56.525,235.198h6.7l0.002-6.7h-6.7L56.525,235.198z M190.595,47.621h6.7v-6.7h-6.7V47.621
					z M150.395,47.621h6.7v-6.7h-6.7V47.621z M163.794,47.621h6.7v-6.7h-6.7V47.621z M177.195,47.621h6.7v-6.7h-6.7V47.621z
					 M203.996,47.621h6.7v-6.7h-6.7V47.621z M56.566,47.594l6.726,0.026v-6.7h-6.726V47.594z M217.396,40.92v6.7h6.7v-6.7H217.396z
					 M83.393,47.621h6.7v-6.7h-6.7V47.621z M69.993,47.621h6.7v-6.7h-6.7V47.621z M136.994,47.621h6.7v-6.7h-6.7V47.621z
					 M96.793,47.621h6.7v-6.7h-6.7V47.621z M110.193,47.621h6.7v-6.7h-6.7V47.621z M123.594,47.621h6.7v-6.7h-6.7V47.621z"
          />
        </g>
      </g>
    </g>
  </g>
</svg>
