<svg
  xmlns="http://www.w3.org/2000/svg"
  viewBox="0 0 210 297"
  aria-hidden="true"
  stroke="#008c8e"
  stroke-width="0.5"
>
  <g id="logo-AZ-Monica">
    <path
      style="fill:#008c8e"
      d="m 69.744233,192.39234 c -7.67692,-0.77445 -11.95091,-2.664 -16.6813,-7.37488 -2.57761,-2.56697 -2.90446,-3.01148 -4.28081,-5.82177 -3.08389,-6.29683 -3.10801,-6.62996 -3.11186,-42.98069 -0.002,-18.1708 0.10151,-30.51933 0.27149,-32.41146 0.41868,-4.660421 1.12983,-7.382961 2.83722,-10.861831 1.37784,-2.80739 1.70901,-3.25745 4.28396,-5.821773 4.84143,-4.821458 8.973,-6.602881 17.17236,-7.404269 3.67929,-0.359606 60.426097,-0.359606 64.105387,0 8.19936,0.801388 12.33093,2.582811 17.17236,7.404269 2.57761,2.566973 2.90446,3.011483 4.28081,5.821773 3.08428,6.29763 3.10801,6.6256 3.11186,43.014891 0.003,32.85195 -0.0819,34.92563 -1.63837,39.7996 -1.24236,3.89034 -3.29117,7.06602 -6.49993,10.07495 -4.32593,4.05654 -8.77884,5.84309 -16.42673,6.59058 -3.35089,0.32751 -61.320057,0.30114 -64.596447,-0.0294 z m 39.530987,-28.24319 c 10.42326,-2.80739 18.25257,-10.67062 21.10985,-21.20128 0.53631,-1.97662 0.60915,-2.8417 0.60152,-7.14375 -0.007,-4.18679 -0.0921,-5.20189 -0.5857,-7.01792 -1.5456,-5.68695 -4.08886,-9.98474 -8.30567,-14.03555 -3.51756,-3.37908 -7.98397,-5.8758 -12.85469,-7.18575 -2.32758,-0.62598 -3.0511,-0.69581 -7.21713,-0.69651 -4.227767,-7.1e-4 -4.859357,0.0621 -7.266727,0.72305 -11.29849,3.10186 -19.47207,12.06707 -21.47815,23.55836 -0.59194,3.39079 -0.36774,8.40508 0.53082,11.87145 1.34809,5.20052 4.15313,9.98184 8.06047,13.73938 3.83831,3.69116 8.10648,6.1106 12.9221,7.32498 3.01204,0.75956 3.24053,0.77949 8.025237,0.69981 3.45412,-0.0575 4.80251,-0.19036 6.45807,-0.63627 z m -9.368487,-3.11182 c -3.06263,-0.4386 -4.65579,-0.7954 -6.43822,-1.44188 -8.5938,-3.11698 -14.87825,-10.67226 -16.32212,-19.62278 -0.50834,-3.15115 -0.21469,-8.25009 0.64063,-11.124 1.32187,-4.44155 3.48286,-7.99047 6.81115,-11.18569 4.67049,-4.48374 9.75856,-6.66252 16.174447,-6.92611 4.05647,-0.16665 6.51958,0.17984 9.92934,1.39679 9.03117,3.22325 15.39134,11.35451 16.47349,21.06081 1.14005,10.22567 -4.24189,20.28152 -13.38699,25.01284 -4.31624,2.23306 -9.98308,3.38834 -13.881727,2.83002 z m -13.28354,-15.37748 c 0.60219,-0.52274 5.81721,-9.37189 5.9327,-10.06697 0.0644,-0.38774 -0.22043,-0.46076 -2.05268,-0.52617 -2.61474,-0.0933 -2.38482,-0.30825 -5.60127,5.23532 -3.01415,5.19491 -3.04305,5.2513 -2.8512,5.56172 0.0881,0.14251 1.03289,0.25912 2.09959,0.25912 1.4675,0 2.06925,-0.11268 2.47286,-0.46302 z m 20.162707,0.0685 c 0,-0.48732 -12.332907,-21.866 -12.776757,-22.14808 -0.45483,-0.28905 -4.35935,-0.26102 -4.54082,0.0326 -0.12732,0.20601 10.23571,18.50648 12.184937,21.51783 l 0.64223,0.99219 h 2.24521 c 1.81346,0 2.2452,-0.0759 2.2452,-0.39455 z m 15.08125,0.0295 c 0,-0.20078 -1.34135,-2.67133 -2.98077,-5.4901 l -2.98078,-5.12505 -2.22015,-0.0775 c -1.22107,-0.0426 -2.32351,0.0258 -2.44985,0.1522 -0.19894,0.19894 4.91555,9.35975 5.86275,10.50106 0.46228,0.55702 4.7688,0.59261 4.7688,0.0394 z m -13.96922,-11.29274 c 0.69717,-0.32201 6.68334,-10.4196 6.42494,-10.83771 -0.0879,-0.14226 -1.08458,-0.25866 -2.2148,-0.25866 -1.7965,0 -2.12205,0.0749 -2.58869,0.59531 -0.66069,0.73688 -5.90848,9.77977 -5.90848,10.18138 0,0.16044 0.14883,0.35177 0.33073,0.42516 0.61776,0.24928 3.3457,0.17655 3.9563,-0.10548 z"
    />
  </g>
</svg>
