<svg
  xmlns="http://www.w3.org/2000/svg"
  viewBox="0 0 24 24"
  fill="none"
  stroke="currentColor"
  aria-hidden="true"
  stroke-width="1.5"
>
  <title>Artboard-18</title>
  <g id="Sun_Calendar" data-name="Sun Calendar">
    <path
      strokeLinecap="round"
      strokeLinejoin="round"
      d="M58,10H57V8a4,4,0,0,0-8,0v2H43V8a4,4,0,0,0-8,0v2H29V8a4,4,0,0,0-8,0v2H15V8A4,4,0,0,0,7,8v2H6a6.006,6.006,0,0,0-6,6V54a6.006,6.006,0,0,0,6,6H58a6.006,6.006,0,0,0,6-6V16A6.006,6.006,0,0,0,58,10ZM51,8a2,2,0,0,1,4,0v6a2,2,0,0,1-4,0ZM37,8a2,2,0,0,1,4,0v6a2,2,0,0,1-4,0ZM23,8a2,2,0,0,1,4,0v6a2,2,0,0,1-4,0ZM9,8a2,2,0,0,1,4,0v6a2,2,0,0,1-4,0ZM6,12H7v2a4,4,0,0,0,8,0V12h6v2a4,4,0,0,0,8,0V12h6v2a4,4,0,0,0,8,0V12h6v2a4,4,0,0,0,8,0V12h1a4,4,0,0,1,4,4v6H2V16A4,4,0,0,1,6,12ZM58,58H6a4,4,0,0,1-4-4V24H62V54A4,4,0,0,1,58,58Z"
    />
    <path
      strokeLinecap="round"
      strokeLinejoin="round"
      d="M45.921,35.875l-3.366-2.543-1.379-3.986a1,1,0,0,0-.926-.673l-4.217-.083-3.462-2.411a1,1,0,0,0-1.142,0L27.967,28.59l-4.217.083a1,1,0,0,0-.925.673l-1.38,3.986-3.366,2.543a1,1,0,0,0-.354,1.089L18.955,41l-1.229,4.036a1,1,0,0,0,.354,1.089l3.365,2.543,1.38,3.986a1,1,0,0,0,.925.673l4.218.083,3.46,2.41a1,1,0,0,0,1.143,0l3.462-2.411,4.217-.083a1,1,0,0,0,.926-.673l1.38-3.986,3.365-2.543a1,1,0,0,0,.354-1.089L45.045,41l1.23-4.036A1,1,0,0,0,45.921,35.875Zm-2.878,5.417,1.115,3.658-3.051,2.3a1.007,1.007,0,0,0-.342.471l-1.251,3.615-3.824.075a1,1,0,0,0-.551.179L32,53.781,28.862,51.6a.993.993,0,0,0-.552-.18l-3.823-.075-1.252-3.615a1.007,1.007,0,0,0-.342-.471l-3.051-2.3,1.115-3.659a1,1,0,0,0,0-.584L19.842,37.05l3.051-2.3a1.007,1.007,0,0,0,.342-.471l1.252-3.615,3.823-.075a1,1,0,0,0,.551-.179L32,28.219l3.139,2.186a1,1,0,0,0,.551.179l3.824.075,1.25,3.615a1.007,1.007,0,0,0,.342.471l3.052,2.3-1.115,3.659A1,1,0,0,0,43.043,41.292Z"
    />
    <path
      strokeLinecap="round"
      strokeLinejoin="round"
      d="M32,33a8,8,0,1,0,8,8A8.009,8.009,0,0,0,32,33Zm0,14a6,6,0,1,1,6-6A6.006,6.006,0,0,1,32,47Z"
    />
  </g>
</svg>
