<svg
  xmlns="http://www.w3.org/2000/svg"
  viewBox="0 0 24 24"
  fill="none"
  stroke="currentColor"
  aria-hidden="true"
  stroke-width="1.5"
>
  <title>Artboard-30</title>
  <g id="Injection">
    <path
      d="M58,10H57V8a4,4,0,0,0-8,0v2H43V8a4,4,0,0,0-8,0v2H29V8a4,4,0,0,0-8,0v2H15V8A4,4,0,0,0,7,8v2H6a6.006,6.006,0,0,0-6,6V54a6.006,6.006,0,0,0,6,6H58a6.006,6.006,0,0,0,6-6V16A6.006,6.006,0,0,0,58,10ZM51,8a2,2,0,0,1,4,0v6a2,2,0,0,1-4,0ZM37,8a2,2,0,0,1,4,0v6a2,2,0,0,1-4,0ZM23,8a2,2,0,0,1,4,0v6a2,2,0,0,1-4,0ZM9,8a2,2,0,0,1,4,0v6a2,2,0,0,1-4,0ZM6,12H7v2a4,4,0,0,0,8,0V12h6v2a4,4,0,0,0,8,0V12h6v2a4,4,0,0,0,8,0V12h6v2a4,4,0,0,0,8,0V12h1a4,4,0,0,1,4,4v6H2V16A4,4,0,0,1,6,12ZM58,58H6a4,4,0,0,1-4-4V24H62V54A4,4,0,0,1,58,58Z"
    />
    <path
      d="M45.293,26.293,42,29.586l-1.293-1.293a1,1,0,0,0-1.414,0L36,31.586l-1.293-1.293a1,1,0,0,0-1.414,0l-12,12a1,1,0,0,0,0,1.414L22.586,45,20,47.586l-1.293-1.293a1,1,0,0,0-1.414,1.414l2,2,4,4,2,2a1,1,0,0,0,1.414-1.414L25.414,53,28,50.414l1.293,1.293a1,1,0,0,0,1.414,0l12-12a1,1,0,0,0,0-1.414L41.414,37l3.293-3.293a1,1,0,0,0,0-1.414L43.414,31l3.293-3.293a1,1,0,0,0-1.414-1.414ZM24,51.586,21.414,49,24,46.414,26.586,49Zm15-11-1.293-1.293a1,1,0,0,0-1.414,1.414L37.586,42,36,43.586l-1.293-1.293a1,1,0,0,0-1.414,1.414L34.586,45,33,46.586l-1.293-1.293a1,1,0,0,0-1.414,1.414L31.586,48,30,49.586l-1.293-1.293-4-4L23.414,43,34,32.414l1.293,1.293,4,4L40.586,39Zm1-5L37.414,33,40,30.414,42.586,33Z"
    />
  </g>
</svg>
