<svg
  xmlns="http://www.w3.org/2000/svg"
  viewBox="0 0 32 32"
  fill="none"
  stroke="currentColor"
  aria-hidden="true"
  stroke-width="1.5"
>
  <title>20-User-Exchange</title>
  <g id="_20-User-Exchange" data-name="20-User-Exchange">
    <path
      strokeLinecap="round"
      strokeLinejoin="round"
      d="M10,10V8A6,6,0,0,1,22,8v2a1,1,0,0,0,1,1v2h2V11a2,2,0,0,0-1-1.73V8A8,8,0,0,0,8,8V9.27A2,2,0,0,0,7,11v2a2,2,0,0,0,1,1.75,8.07,8.07,0,0,0,4,6.16v1.39L4.7,25c-.91.23-4.7,1.37-4.7,4v2a1,1,0,0,0,1,1H15V30H2V29c0-.78,1.92-1.7,3.24-2l.11,0,8-3A1,1,0,0,0,14,23V20.31a1,1,0,0,0-.57-.9A6,6,0,0,1,10,14a1,1,0,0,0-1-1V11A1,1,0,0,0,10,10Z"
    />
    <path
      strokeLinecap="round"
      strokeLinejoin="round"
      d="M30.29,20.29,29,21.59V18a2,2,0,0,0-2-2H20v2h7v3.59l-1.29-1.29-1.41,1.41,3,3a1,1,0,0,0,1.41,0l3-3Z"
    />
    <path
      strokeLinecap="round"
      strokeLinejoin="round"
      d="M21,24.41l1.29,1.29,1.41-1.41-3-3a1,1,0,0,0-1.41,0l-3,3,1.41,1.41L19,24.41V28a2,2,0,0,0,2,2h7V28H21Z"
    />
  </g>
</svg>
